<?xml version="1.0" standalone="no"?><svg xmlns="http://www.w3.org/2000/svg" viewBox="0 0 1440 320"><path fill="#e8dbcd" fill-opacity="1" d="M0,256L30,256C60,256,120,256,180,245.3C240,235,300,213,360,202.7C420,192,480,192,540,202.7C600,213,660,235,720,229.3C780,224,840,192,900,197.3C960,203,1020,245,1080,250.7C1140,256,1200,224,1260,218.7C1320,213,1380,235,1410,245.3L1440,256L1440,320L1410,320C1380,320,1320,320,1260,320C1200,320,1140,320,1080,320C1020,320,960,320,900,320C840,320,780,320,720,320C660,320,600,320,540,320C480,320,420,320,360,320C300,320,240,320,180,320C120,320,60,320,30,320L0,320Z"></path></svg>